<svg xmlns="http://www.w3.org/2000/svg" viewBox="383.0 492.0 1281.0 268.0" role="img" aria-label="Cuvon">
  <title>Cuvon</title>
  <g fill="#294C7D">
    <path d="M506.0,504.0 L543.0,504.0 L564.0,506.0 L589.0,512.0 L597.0,515.0 L597.0,586.0 L573.0,578.0 L551.0,574.0 L541.0,573.0 L520.0,573.0 L502.0,576.0 L488.0,582.0 L480.0,589.0 L474.0,598.0 L470.0,608.0 L468.0,622.0 L469.0,638.0 L473.0,651.0 L476.0,657.0 L485.0,667.0 L495.0,673.0 L507.0,677.0 L512.0,678.0 L545.0,678.0 L571.0,674.0 L586.0,670.0 L596.0,666.0 L597.0,667.0 L597.0,737.0 L589.0,740.0 L567.0,745.0 L541.0,748.0 L508.0,748.0 L485.0,744.0 L467.0,738.0 L451.0,730.0 L439.0,722.0 L427.0,711.0 L419.0,702.0 L409.0,686.0 L401.0,667.0 L397.0,649.0 L395.0,632.0 L395.0,619.0 L398.0,597.0 L404.0,576.0 L412.0,560.0 L419.0,550.0 L428.0,539.0 L441.0,528.0 L452.0,521.0 L471.0,512.0 L488.0,507.0 Z"/>
    <path d="M624.0,506.0 L695.0,506.0 L696.0,635.0 L700.0,651.0 L705.0,661.0 L713.0,670.0 L721.0,675.0 L734.0,679.0 L741.0,680.0 L757.0,679.0 L769.0,675.0 L777.0,670.0 L784.0,663.0 L791.0,649.0 L794.0,633.0 L795.0,507.0 L796.0,506.0 L866.0,506.0 L867.0,507.0 L867.0,636.0 L864.0,657.0 L857.0,678.0 L849.0,694.0 L841.0,705.0 L830.0,717.0 L814.0,729.0 L797.0,738.0 L776.0,744.0 L757.0,747.0 L733.0,747.0 L713.0,744.0 L692.0,737.0 L675.0,728.0 L663.0,719.0 L649.0,705.0 L639.0,689.0 L631.0,673.0 L626.0,655.0 L624.0,643.0 L623.0,632.0 L623.0,507.0 Z"/>
    <path d="M877.0,506.0 L948.0,506.0 L953.0,518.0 L975.0,574.0 L994.0,623.0 L1008.0,659.0 L1010.0,664.0 L1010.0,668.0 L1012.0,668.0 L1013.0,661.0 L1034.0,606.0 L1051.0,562.0 L1065.0,525.0 L1072.0,508.0 L1074.0,506.0 L1144.0,506.0 L1143.0,511.0 L1124.0,557.0 L1108.0,596.0 L1093.0,633.0 L1076.0,674.0 L1061.0,711.0 L1047.0,745.0 L975.0,745.0 L969.0,733.0 L951.0,689.0 L935.0,650.0 L915.0,601.0 L896.0,555.0 L879.0,513.0 Z"/>
    <path fill-rule="evenodd" d="M1241.0,504.0 L1272.0,504.0 L1291.0,507.0 L1311.0,513.0 L1328.0,521.0 L1342.0,531.0 L1355.0,543.0 L1365.0,556.0 L1374.0,573.0 L1380.0,589.0 L1383.0,604.0 L1384.0,613.0 L1384.0,638.0 L1381.0,656.0 L1375.0,676.0 L1367.0,692.0 L1357.0,705.0 L1345.0,718.0 L1329.0,729.0 L1313.0,737.0 L1295.0,743.0 L1279.0,746.0 L1270.0,747.0 L1245.0,747.0 L1225.0,744.0 L1204.0,738.0 L1183.0,727.0 L1169.0,716.0 L1158.0,705.0 L1149.0,693.0 L1139.0,672.0 L1135.0,659.0 L1132.0,643.0 L1131.0,634.0 L1131.0,616.0 L1134.0,596.0 L1139.0,578.0 L1147.0,561.0 L1158.0,545.0 L1169.0,534.0 L1186.0,522.0 L1202.0,514.0 L1213.0,510.0 L1233.0,505.0 Z M1252.0,570.0 L1264.0,570.0 L1279.0,573.0 L1293.0,580.0 L1300.0,586.0 L1307.0,597.0 L1311.0,610.0 L1312.0,618.0 L1312.0,635.0 L1308.0,651.0 L1304.0,659.0 L1295.0,669.0 L1286.0,675.0 L1275.0,679.0 L1262.0,681.0 L1246.0,680.0 L1231.0,676.0 L1221.0,670.0 L1213.0,661.0 L1207.0,651.0 L1204.0,640.0 L1203.0,632.0 L1203.0,620.0 L1205.0,606.0 L1213.0,590.0 L1221.0,581.0 L1233.0,574.0 L1245.0,571.0 Z"/>
    <path d="M1514.0,504.0 L1545.0,504.0 L1567.0,508.0 L1582.0,513.0 L1601.0,523.0 L1614.0,533.0 L1625.0,544.0 L1632.0,554.0 L1640.0,568.0 L1647.0,587.0 L1651.0,607.0 L1652.0,618.0 L1652.0,745.0 L1580.0,745.0 L1579.0,721.0 L1579.0,638.0 L1578.0,612.0 L1576.0,601.0 L1571.0,591.0 L1564.0,582.0 L1554.0,576.0 L1542.0,572.0 L1535.0,571.0 L1524.0,571.0 L1508.0,575.0 L1497.0,582.0 L1490.0,590.0 L1484.0,602.0 L1482.0,611.0 L1481.0,620.0 L1480.0,745.0 L1408.0,745.0 L1408.0,620.0 L1410.0,599.0 L1416.0,578.0 L1423.0,563.0 L1430.0,551.0 L1437.0,542.0 L1447.0,532.0 L1462.0,521.0 L1478.0,513.0 L1497.0,507.0 Z"/>
  </g>
</svg>